<svg width="512" height="600" xmlns="http://www.w3.org/2000/svg">
 <g id="Layer_1">
  <title>Layer 1</title>
  <path stroke="#000" stroke-width="0" id="svg_5" d="m157.61524,527.11798c1.34031,-0.3893 11.07525,15.49025 11.25886,18.69009c0.26806,4.67246 6.43366,4.67246 8.04203,4.67246c1.60846,0 13.13538,10.12377 20.90935,21.02638c7.77406,10.90249 30.55984,0.77872 32.16821,0c1.60846,-0.77885 75.05925,-21.41568 94.89626,-7.00875c9.52717,6.91917 28.30612,-17.52632 30.76091,-68.33556c-1.00525,-33.87562 -21.97824,-35.14696 -26.33776,-24.82267c-3.21683,4.57514 -8.71223,3.21234 -7.37183,-5.15921c1.21879,-5.60598 9.38234,-22.8758 24.46124,-15.28298c12.7833,6.43692 20.17715,21.91905 22.91986,44.68079c1.80944,49.0614 -23.52306,85.27331 -23.52306,85.27331c0,0 2.01051,12.84948 4.82529,21.02638c2.81469,8.1769 3.61888,36.21191 3.21674,39.71623c-0.40205,3.50444 12.06313,22.7786 16.08415,23.36255c3.48489,2.33629 13.26945,45.55708 13.6715,54.902c3.61897,2.62827 -0.40205,15.76973 -4.8252,17.52195c-4.42315,1.75222 -5.62947,-10.51319 -5.62947,-16.3538c0,-5.84061 -4.42315,-33.29167 -16.88833,-36.21191c-12.46518,-2.92037 -23.32191,-12.84948 -23.32191,-12.84948c0,0 -0.80427,5.84073 -2.41264,8.17702c0,0 4.02102,9.92899 4.02102,24.53057c-0.40205,6.42468 -6.83571,26.28292 -11.25886,28.03514c0,0 -7.23785,16.3538 -10.45468,16.3538c-3.21683,0 -8.8463,5.84061 -17.69252,-1.16815c0,0 1.60837,-14.60158 9.65049,-10.51319c0,0 18.89884,-21.02626 9.6504,-30.3713c0,0 -5.62939,-11.68121 -8.84622,-16.3538c-3.21683,-4.67246 -6.43366,-12.26529 -7.23785,-21.02626c0,0 -26.94087,-2.33629 -33.77667,-4.67259c-6.83571,-2.33617 -19.30089,3.50444 -19.30089,7.00875c0,3.50444 2.01051,36.79611 5.62939,43.22079c0,0 1.20632,8.1769 0,10.51319c-1.20632,2.33617 4.42315,21.61033 -6.43366,19.85811c-10.25361,2.62827 -15.27988,-9.05295 -3.21674,-12.84936c0.60312,-12.55739 -15.27996,-65.70717 -25.73464,-58.40644c-13.6715,2.92037 -9.04729,-14.30948 -22.51772,12.84948c-14.07364,23.9465 -38.19982,40.88437 -39.40606,51.39756c0,0 -7.23785,-2.33629 -8.8463,5.84061c0,0 -18.89884,3.50444 -17.69252,-1.16815c1.20632,-4.67246 2.21158,-14.30948 9.65049,-10.51307c0,0 16.88833,-9.63714 32.9724,-59.57459c0,0 -2.01051,-12.84936 0.80419,-23.36255c2.81478,-10.51307 -1.60837,-53.73386 -21.71354,-51.39756c0,0 -7.50591,3.89374 -12.06305,-14.01751c0,0 -1.87652,-3.50444 0,-7.00875c1.87643,-3.50444 6.43366,-8.95562 7.23785,-12.84936c0.80419,-3.89386 2.68071,-9.73447 12.86723,-15.18578c4.82529,-7.30073 -0.53604,-21.80498 0.80427,-22.19441z" fill="#fff"/>
  <path stroke="#000" stroke-width="0" id="svg_7" d="m412.61524,226.94609c1.34031,-0.3893 11.07525,15.49025 11.25886,18.69009c0.26807,4.67246 6.43366,4.67246 8.04204,4.67246c1.60845,0 13.13538,10.12377 20.90935,21.02639c7.77405,10.90249 30.55984,0.77872 32.16821,0c1.60846,-0.77885 75.05924,-21.41569 94.89626,-7.00876c9.52716,6.91918 28.30612,-17.52631 30.76091,-68.33556c-1.00526,-33.87562 -21.97825,-35.14696 -26.33776,-24.82267c-3.21683,4.57514 -8.71223,3.21234 -7.37183,-5.15921c1.21879,-5.60598 9.38234,-22.8758 24.46123,-15.28298c12.7833,6.43693 20.17715,21.91905 22.91986,44.68079c1.80944,49.0614 -23.52306,85.27331 -23.52306,85.27331c0,0 2.01051,12.84948 4.82529,21.02638c2.81469,8.1769 3.61888,36.21191 3.21674,39.71623c-0.40205,3.50444 12.06313,22.7786 16.08415,23.36255c3.48489,2.33629 13.26945,45.55708 13.6715,54.902c3.61897,2.62827 -0.40205,15.76973 -4.8252,17.52195c-4.42315,1.75222 -5.62947,-10.51319 -5.62947,-16.3538c0,-5.84061 -4.42315,-33.29167 -16.88834,-36.21191c-12.46518,-2.92037 -23.3219,-12.84949 -23.3219,-12.84949c0,0 -0.80428,5.84073 -2.41265,8.17703c0,0 4.02102,9.92899 4.02102,24.53057c-0.40205,6.42468 -6.83571,26.28292 -11.25886,28.03514c0,0 -7.23785,16.3538 -10.45468,16.3538c-3.21683,0 -8.8463,5.8406 -17.69252,-1.16815c0,0 1.60837,-14.60158 9.65049,-10.51319c0,0 18.89884,-21.02626 9.6504,-30.37131c0,0 -5.62938,-11.68121 -8.84621,-16.3538c-3.21683,-4.67246 -6.43366,-12.26528 -7.23785,-21.02626c0,0 -26.94087,-2.33629 -33.77667,-4.67258c-6.83571,-2.33617 -19.30089,3.50444 -19.30089,7.00875c0,3.50444 2.01051,36.79611 5.62939,43.22079c0,0 1.20632,8.1769 0,10.51319c-1.20632,2.33617 4.42315,21.61034 -6.43366,19.85812c-10.25361,2.62826 -15.27988,-9.05295 -3.21675,-12.84936c0.60312,-12.55739 -15.27996,-65.70717 -25.73463,-58.40645c-13.67151,2.92037 -9.04729,-14.30948 -22.51773,12.84949c-14.07364,23.9465 -38.19982,40.88437 -39.40605,51.39756c0,0 -7.23785,-2.33629 -8.8463,5.84061c0,0 -18.89885,3.50444 -17.69253,-1.16815c1.20633,-4.67246 2.21158,-14.30948 9.65049,-10.51306c0,0 16.88834,-9.63715 32.9724,-59.57459c0,0 -2.01051,-12.84936 0.80419,-23.36255c2.81478,-10.51307 -1.60838,-53.73386 -21.71354,-51.39757c0,0 -7.50591,3.89374 -12.06305,-14.0175c0,0 -1.87652,-3.50444 0,-7.00876c1.87644,-3.50444 6.43366,-8.95562 7.23785,-12.84936c0.80419,-3.89386 2.68071,-9.73447 12.86723,-15.18577c4.82529,-7.30073 -0.53604,-21.80499 0.80427,-22.19441z" fill="#fff"/>
  <path stroke="#000" stroke-width="0" id="svg_8" d="m157.61522,-72.88202c1.34031,-0.3893 11.07525,15.49025 11.25886,18.69009c0.26807,4.67246 6.43366,4.67246 8.04204,4.67246c1.60845,0 13.13538,10.12377 20.90935,21.02639c7.77405,10.90249 30.55984,0.77872 32.16821,0c1.60846,-0.77885 75.05924,-21.41569 94.89626,-7.00876c9.52716,6.91918 28.30612,-17.52631 30.76091,-68.33556c-1.00526,-33.87562 -21.97825,-35.14696 -26.33776,-24.82267c-3.21683,4.57514 -8.71223,3.21234 -7.37183,-5.15921c1.21879,-5.60598 9.38234,-22.8758 24.46123,-15.28298c12.7833,6.43693 20.17715,21.91905 22.91986,44.68079c1.80944,49.0614 -23.52306,85.27331 -23.52306,85.27331c0,0 2.01051,12.84948 4.82529,21.02638c2.81469,8.1769 3.61888,36.21191 3.21674,39.71623c-0.40205,3.50444 12.06313,22.7786 16.08415,23.36255c3.48489,2.33629 13.26945,45.55708 13.6715,54.902c3.61897,2.62827 -0.40205,15.76973 -4.8252,17.52195c-4.42315,1.75222 -5.62947,-10.51319 -5.62947,-16.3538c0,-5.84061 -4.42315,-33.29167 -16.88834,-36.21191c-12.46518,-2.92037 -23.3219,-12.84949 -23.3219,-12.84949c0,0 -0.80428,5.84073 -2.41265,8.17703c0,0 4.02102,9.92899 4.02102,24.53057c-0.40205,6.42468 -6.83571,26.28292 -11.25886,28.03514c0,0 -7.23785,16.3538 -10.45468,16.3538c-3.21683,0 -8.8463,5.8406 -17.69252,-1.16815c0,0 1.60837,-14.60158 9.65049,-10.51319c0,0 18.89884,-21.02626 9.6504,-30.37131c0,0 -5.62938,-11.68121 -8.84621,-16.3538c-3.21683,-4.67246 -6.43366,-12.26528 -7.23785,-21.02626c0,0 -26.94087,-2.33629 -33.77667,-4.67258c-6.83571,-2.33617 -19.30089,3.50444 -19.30089,7.00875c0,3.50444 2.01051,36.79611 5.62939,43.22079c0,0 1.20632,8.1769 0,10.51319c-1.20632,2.33617 4.42315,21.61034 -6.43366,19.85812c-10.25361,2.62826 -15.27988,-9.05295 -3.21675,-12.84936c0.60312,-12.55739 -15.27996,-65.70717 -25.73463,-58.40645c-13.67151,2.92037 -9.04729,-14.30948 -22.51773,12.84949c-14.07364,23.9465 -38.19982,40.88437 -39.40605,51.39756c0,0 -7.23785,-2.33629 -8.8463,5.84061c0,0 -18.89885,3.50444 -17.69253,-1.16815c1.20633,-4.67246 2.21158,-14.30948 9.65049,-10.51306c0,0 16.88834,-9.63715 32.9724,-59.57459c0,0 -2.01051,-12.84936 0.80419,-23.36255c2.81478,-10.51307 -1.60838,-53.73386 -21.71354,-51.39757c0,0 -7.50591,3.89374 -12.06305,-14.0175c0,0 -1.87652,-3.50444 0,-7.00876c1.87644,-3.50444 6.43366,-8.95562 7.23785,-12.84936c0.80419,-3.89386 2.68071,-9.73447 12.86723,-15.18577c4.82529,-7.30073 -0.53604,-21.80499 0.80427,-22.19441z" fill="#fff"/>
  <path stroke="#000" stroke-width="0" id="svg_9" d="m-98.38478,226.94609c1.34031,-0.3893 11.07525,15.49025 11.25886,18.69009c0.26807,4.67246 6.43366,4.67246 8.04204,4.67246c1.60845,0 13.13538,10.12377 20.90935,21.02639c7.77405,10.90249 30.55984,0.77872 32.16821,0c1.60846,-0.77885 75.05924,-21.41569 94.89626,-7.00876c9.52716,6.91918 28.30612,-17.52631 30.76091,-68.33556c-1.00526,-33.87562 -21.97825,-35.14696 -26.33776,-24.82267c-3.21683,4.57514 -8.71223,3.21234 -7.37183,-5.15921c1.21879,-5.60598 9.38234,-22.8758 24.46123,-15.28298c12.7833,6.43693 20.17715,21.91905 22.91986,44.68079c1.80944,49.0614 -23.52306,85.27331 -23.52306,85.27331c0,0 2.01051,12.84948 4.82529,21.02638c2.81469,8.1769 3.61888,36.21191 3.21674,39.71623c-0.40205,3.50444 12.06313,22.7786 16.08415,23.36255c3.48489,2.33629 13.26945,45.55708 13.6715,54.902c3.61897,2.62827 -0.40205,15.76973 -4.8252,17.52195c-4.42315,1.75222 -5.62947,-10.51319 -5.62947,-16.3538c0,-5.84061 -4.42315,-33.29167 -16.88834,-36.21191c-12.46518,-2.92037 -23.3219,-12.84949 -23.3219,-12.84949c0,0 -0.80428,5.84073 -2.41265,8.17703c0,0 4.02102,9.92899 4.02102,24.53057c-0.40205,6.42468 -6.83571,26.28292 -11.25886,28.03514c0,0 -7.23785,16.3538 -10.45468,16.3538c-3.21683,0 -8.8463,5.8406 -17.69252,-1.16815c0,0 1.60837,-14.60158 9.65049,-10.51319c0,0 18.89884,-21.02626 9.6504,-30.37131c0,0 -5.62938,-11.68121 -8.84621,-16.3538c-3.21683,-4.67246 -6.43366,-12.26528 -7.23785,-21.02626c0,0 -26.94087,-2.33629 -33.77667,-4.67258c-6.83571,-2.33617 -19.30089,3.50444 -19.30089,7.00875c0,3.50444 2.01051,36.79611 5.62939,43.22079c0,0 1.20632,8.1769 0,10.51319c-1.20632,2.33617 4.42315,21.61034 -6.43366,19.85812c-10.25361,2.62826 -15.27988,-9.05295 -3.21675,-12.84936c0.60312,-12.55739 -15.27996,-65.70717 -25.73463,-58.40645c-13.67151,2.92037 -9.04729,-14.30948 -22.51773,12.84949c-14.07364,23.9465 -38.19982,40.88437 -39.40605,51.39756c0,0 -7.23785,-2.33629 -8.8463,5.84061c0,0 -18.89885,3.50444 -17.69253,-1.16815c1.20633,-4.67246 2.21158,-14.30948 9.65049,-10.51306c0,0 16.88834,-9.63715 32.9724,-59.57459c0,0 -2.01051,-12.84936 0.80419,-23.36255c2.81478,-10.51307 -1.60838,-53.73386 -21.71354,-51.39757c0,0 -7.50591,3.89374 -12.06305,-14.0175c0,0 -1.87652,-3.50444 0,-7.00876c1.87644,-3.50444 6.43366,-8.95562 7.23785,-12.84936c0.80419,-3.89386 2.68071,-9.73447 12.86723,-15.18577c4.82529,-7.30073 -0.53604,-21.80499 0.80427,-22.19441z" fill="#fff"/>
 </g>
</svg>