<svg width="512" height="600" xmlns="http://www.w3.org/2000/svg">
 <g id="Layer_1">
  <title>Layer 1</title>
  <path id="svg_1" d="m442,300.00001l0,0c0,-38.38381 31.11621,-69.50004 69.50001,-69.50004l0,0c18.43254,0 36.11013,7.3223 49.14392,20.35609c13.03378,13.03379 20.35607,30.7114 20.35607,49.14395l0,0c0,38.3838 -31.11621,69.50003 -69.49999,69.50003l0,0c-38.3838,0 -69.50001,-31.11623 -69.50001,-69.50003zm69.50001,-69.50004l0,139.00007m-69.50001,-69.50003l139,0" stroke-width="0" stroke="#000" fill="#fff"/>
  <path id="svg_2" d="m186.16668,-0.49996l0,0c0,-38.38381 31.11621,-69.50004 69.5,-69.50004l0,0c18.43254,0 36.11014,7.3223 49.14392,20.35609c13.03378,13.03379 20.35607,30.7114 20.35607,49.14395l0,0c0,38.3838 -31.1162,69.50003 -69.49999,69.50003l0,0c-38.38379,0 -69.5,-31.11623 -69.5,-69.50003zm69.5,-69.50004l0,139.00007m-69.5,-69.50003l138.99999,0" stroke-width="0" stroke="#000" fill="#fff"/>
  <path id="svg_3" d="m-70,300.00001l0,0c0,-38.38381 31.11621,-69.50004 69.50001,-69.50004l0,0c18.43254,0 36.11013,7.3223 49.14392,20.35609c13.03377,13.03378 20.35607,30.71139 20.35607,49.14395l0,0c0,38.3838 -31.11621,69.50003 -69.49999,69.50003l0,0c-38.3838,0 -69.50001,-31.11623 -69.50001,-69.50003zm69.50001,-69.50004l0,139.00007m-69.50001,-69.50003l139,0" stroke-width="0" stroke="#000" fill="#fff"/>
  <path id="svg_4" d="m186.5,600.50003l0,0c0,-38.38381 31.11621,-69.50004 69.50001,-69.50004l0,0c18.43254,0 36.11013,7.3223 49.14392,20.35609c13.03377,13.03378 20.35607,30.71139 20.35607,49.14395l0,0c0,38.3838 -31.11621,69.50003 -69.49999,69.50003l0,0c-38.3838,0 -69.50001,-31.11623 -69.50001,-69.50003zm69.50001,-69.50004l0,139.00007m-69.50001,-69.50003l139,0" stroke-width="0" stroke="#000" fill="#fff"/>
 </g>
</svg>