<svg width="512" height="512" xmlns="http://www.w3.org/2000/svg">
 <g id="Layer_1">
  <title>Layer 1</title>
  <path fill="none" stroke-width="5" id="svg_12" d="m173.35287,298.23575c2.35294,-0.58823 4.74196,-1.0733 8.23531,-2.35294c5.94893,-2.17914 13.58191,-5.19809 21.17648,-9.41177c8.29395,-4.60172 15.22769,-10.44781 17.05884,-17.05884c1.41318,-5.10202 -5.46803,-15.16412 -21.76472,-21.17648c-20.89125,-7.70743 -47.08113,-9.8614 -67.05888,0.58824c-12.94726,6.77225 -20.87891,21.19374 -17.05883,32.94121c4.94845,15.21738 25.57302,24.10907 44.11768,26.47061c18.68187,2.379 32.94121,-2.35297 43.52945,-4.7059l3.5294,-0.58823l-0.58823,0l-0.58824,0"/>
  <path fill="none" stroke-width="5" id="svg_13" d="m32.76452,230.58864c1.17647,0.58824 4.3186,2.84062 12.35295,8.82355c12.95501,9.64717 36.22897,20.04604 61.76476,29.41179c36.15103,13.25909 92.79672,30.06741 150.58835,30.58826c44.17862,0.39816 85.84137,-9.02856 112.94128,-19.41177c12.04703,-4.61575 14.04028,-7.8533 10,-7.05884c-13.71948,2.69775 -22.51233,11.83075 -24.7059,19.41177c-1.64316,5.67874 0.57007,13.0657 5.29413,16.47061c5.33527,3.84543 14.11765,3.52942 24.11768,2.35294l7.64706,-3.52942"/>
  <line stroke-width="5" stroke-linecap="undefined" stroke-linejoin="undefined" id="svg_2" y2="512" x2="256" y1="0" x1="256" stroke="#ffffff" fill="none"/>
  <line transform="rotate(90 256 256)" stroke-width="5" stroke-linecap="undefined" stroke-linejoin="undefined" id="svg_3" y2="512" x2="256" y1="0" x1="256" stroke="#ffffff" fill="none"/>
 </g>

</svg>